<mxfile host="app.diagrams.net" modified="2023-08-31T23:18:18.400Z" agent="Mozilla/5.0 (Windows NT 10.0; Win64; x64) AppleWebKit/537.36 (KHTML, like Gecko) Chrome/116.0.0.0 Safari/537.36" etag="_4TjSyPholgX7bZnMZZv" version="21.7.1" type="device">
  <diagram name="Сторінка-1" id="qHL_Yd2Up_vQmZSL9weQ">
    <mxGraphModel dx="1193" dy="1104" grid="0" gridSize="10" guides="1" tooltips="1" connect="1" arrows="1" fold="1" page="1" pageScale="1" pageWidth="827" pageHeight="1169" math="0" shadow="0">
      <root>
        <mxCell id="0" />
        <mxCell id="1" parent="0" />
        <mxCell id="faVl-AdN8Rskw6OQzA6x-1" value="&lt;font style=&quot;font-size: 30px;&quot;&gt;Client data flow&lt;/font&gt;" style="text;html=1;strokeColor=none;fillColor=none;align=center;verticalAlign=middle;whiteSpace=wrap;rounded=0;" vertex="1" parent="1">
          <mxGeometry x="242.5" y="50" width="275" height="30" as="geometry" />
        </mxCell>
        <mxCell id="faVl-AdN8Rskw6OQzA6x-16" value="" style="edgeStyle=orthogonalEdgeStyle;rounded=0;orthogonalLoop=1;jettySize=auto;html=1;" edge="1" parent="1" source="faVl-AdN8Rskw6OQzA6x-2" target="faVl-AdN8Rskw6OQzA6x-4">
          <mxGeometry relative="1" as="geometry" />
        </mxCell>
        <mxCell id="faVl-AdN8Rskw6OQzA6x-18" style="edgeStyle=orthogonalEdgeStyle;rounded=0;orthogonalLoop=1;jettySize=auto;html=1;exitX=0.5;exitY=1;exitDx=0;exitDy=0;entryX=0;entryY=0.5;entryDx=0;entryDy=0;" edge="1" parent="1" source="faVl-AdN8Rskw6OQzA6x-2" target="faVl-AdN8Rskw6OQzA6x-12">
          <mxGeometry relative="1" as="geometry" />
        </mxCell>
        <mxCell id="faVl-AdN8Rskw6OQzA6x-2" value="&lt;font style=&quot;font-size: 16px;&quot;&gt;Product card&lt;/font&gt;" style="rounded=0;whiteSpace=wrap;html=1;strokeWidth=2;fillColor=#d5e8d4;strokeColor=#82b366;" vertex="1" parent="1">
          <mxGeometry x="70" y="220" width="120" height="140" as="geometry" />
        </mxCell>
        <mxCell id="faVl-AdN8Rskw6OQzA6x-6" style="edgeStyle=orthogonalEdgeStyle;rounded=0;orthogonalLoop=1;jettySize=auto;html=1;exitX=0.25;exitY=0;exitDx=0;exitDy=0;entryX=0.25;entryY=1;entryDx=0;entryDy=0;" edge="1" parent="1" source="faVl-AdN8Rskw6OQzA6x-4" target="faVl-AdN8Rskw6OQzA6x-5">
          <mxGeometry relative="1" as="geometry" />
        </mxCell>
        <mxCell id="faVl-AdN8Rskw6OQzA6x-38" style="edgeStyle=orthogonalEdgeStyle;rounded=0;orthogonalLoop=1;jettySize=auto;html=1;exitX=0.75;exitY=1;exitDx=0;exitDy=0;entryX=0.25;entryY=0;entryDx=0;entryDy=0;" edge="1" parent="1" source="faVl-AdN8Rskw6OQzA6x-4" target="faVl-AdN8Rskw6OQzA6x-10">
          <mxGeometry relative="1" as="geometry" />
        </mxCell>
        <mxCell id="faVl-AdN8Rskw6OQzA6x-4" value="&lt;p style=&quot;line-height: 120%;&quot;&gt;&lt;font style=&quot;font-size: 16px;&quot;&gt;Provider Product&lt;/font&gt;&lt;/p&gt;" style="rounded=0;whiteSpace=wrap;html=1;strokeWidth=2;fillColor=#d5e8d4;strokeColor=#82b366;align=center;" vertex="1" parent="1">
          <mxGeometry x="280" y="240" width="200" height="100" as="geometry" />
        </mxCell>
        <mxCell id="faVl-AdN8Rskw6OQzA6x-7" style="edgeStyle=orthogonalEdgeStyle;rounded=0;orthogonalLoop=1;jettySize=auto;html=1;exitX=0.75;exitY=1;exitDx=0;exitDy=0;entryX=0.75;entryY=0;entryDx=0;entryDy=0;" edge="1" parent="1" source="faVl-AdN8Rskw6OQzA6x-5" target="faVl-AdN8Rskw6OQzA6x-4">
          <mxGeometry relative="1" as="geometry" />
        </mxCell>
        <mxCell id="faVl-AdN8Rskw6OQzA6x-5" value="&lt;font style=&quot;font-size: 16px;&quot;&gt;Session Storage&lt;/font&gt;" style="rounded=0;whiteSpace=wrap;html=1;strokeWidth=2;fillColor=#d5e8d4;strokeColor=#82b366;" vertex="1" parent="1">
          <mxGeometry x="280" y="120" width="200" height="60" as="geometry" />
        </mxCell>
        <mxCell id="faVl-AdN8Rskw6OQzA6x-8" value="&lt;font style=&quot;font-size: 14px;&quot;&gt;set product&lt;/font&gt;" style="text;html=1;align=center;verticalAlign=middle;resizable=0;points=[];autosize=1;strokeColor=none;fillColor=none;strokeWidth=1;" vertex="1" parent="1">
          <mxGeometry x="245" y="198" width="90" height="30" as="geometry" />
        </mxCell>
        <mxCell id="faVl-AdN8Rskw6OQzA6x-9" value="&lt;font style=&quot;font-size: 14px;&quot;&gt;get product&lt;/font&gt;" style="text;html=1;align=center;verticalAlign=middle;resizable=0;points=[];autosize=1;strokeColor=none;fillColor=none;strokeWidth=1;" vertex="1" parent="1">
          <mxGeometry x="424" y="196" width="90" height="30" as="geometry" />
        </mxCell>
        <mxCell id="faVl-AdN8Rskw6OQzA6x-34" value="" style="edgeStyle=orthogonalEdgeStyle;rounded=0;orthogonalLoop=1;jettySize=auto;html=1;" edge="1" parent="1" source="faVl-AdN8Rskw6OQzA6x-10" target="faVl-AdN8Rskw6OQzA6x-12">
          <mxGeometry relative="1" as="geometry" />
        </mxCell>
        <mxCell id="faVl-AdN8Rskw6OQzA6x-36" style="edgeStyle=orthogonalEdgeStyle;rounded=0;orthogonalLoop=1;jettySize=auto;html=1;exitX=1;exitY=0.25;exitDx=0;exitDy=0;entryX=0;entryY=0.25;entryDx=0;entryDy=0;" edge="1" parent="1" source="faVl-AdN8Rskw6OQzA6x-10" target="faVl-AdN8Rskw6OQzA6x-11">
          <mxGeometry relative="1" as="geometry" />
        </mxCell>
        <mxCell id="faVl-AdN8Rskw6OQzA6x-40" style="edgeStyle=orthogonalEdgeStyle;rounded=0;orthogonalLoop=1;jettySize=auto;html=1;exitX=0.75;exitY=0;exitDx=0;exitDy=0;entryX=1;entryY=0.75;entryDx=0;entryDy=0;" edge="1" parent="1" source="faVl-AdN8Rskw6OQzA6x-10" target="faVl-AdN8Rskw6OQzA6x-4">
          <mxGeometry relative="1" as="geometry" />
        </mxCell>
        <mxCell id="faVl-AdN8Rskw6OQzA6x-10" value="&lt;font style=&quot;font-size: 16px;&quot;&gt;Cart&lt;/font&gt;" style="rounded=0;whiteSpace=wrap;html=1;strokeWidth=2;align=center;fillColor=#d5e8d4;strokeColor=#82b366;" vertex="1" parent="1">
          <mxGeometry x="450" y="450" width="120" height="140" as="geometry" />
        </mxCell>
        <mxCell id="faVl-AdN8Rskw6OQzA6x-37" style="edgeStyle=orthogonalEdgeStyle;rounded=0;orthogonalLoop=1;jettySize=auto;html=1;exitX=0;exitY=0.75;exitDx=0;exitDy=0;entryX=1;entryY=0.75;entryDx=0;entryDy=0;" edge="1" parent="1" source="faVl-AdN8Rskw6OQzA6x-11" target="faVl-AdN8Rskw6OQzA6x-10">
          <mxGeometry relative="1" as="geometry" />
        </mxCell>
        <mxCell id="faVl-AdN8Rskw6OQzA6x-42" style="edgeStyle=orthogonalEdgeStyle;rounded=0;orthogonalLoop=1;jettySize=auto;html=1;exitX=0.5;exitY=0;exitDx=0;exitDy=0;entryX=1;entryY=0.25;entryDx=0;entryDy=0;" edge="1" parent="1" source="faVl-AdN8Rskw6OQzA6x-11" target="faVl-AdN8Rskw6OQzA6x-4">
          <mxGeometry relative="1" as="geometry" />
        </mxCell>
        <mxCell id="faVl-AdN8Rskw6OQzA6x-11" value="&lt;font style=&quot;font-size: 16px;&quot;&gt;Cart Card&lt;/font&gt;" style="rounded=0;whiteSpace=wrap;html=1;strokeWidth=2;fillColor=#d5e8d4;strokeColor=#82b366;" vertex="1" parent="1">
          <mxGeometry x="680" y="450" width="120" height="140" as="geometry" />
        </mxCell>
        <mxCell id="faVl-AdN8Rskw6OQzA6x-14" value="" style="edgeStyle=orthogonalEdgeStyle;rounded=0;orthogonalLoop=1;jettySize=auto;html=1;" edge="1" parent="1" source="faVl-AdN8Rskw6OQzA6x-12" target="faVl-AdN8Rskw6OQzA6x-13">
          <mxGeometry relative="1" as="geometry" />
        </mxCell>
        <mxCell id="faVl-AdN8Rskw6OQzA6x-12" value="&lt;span style=&quot;font-size: 16px;&quot;&gt;Provider Counter&lt;/span&gt;" style="rounded=0;whiteSpace=wrap;html=1;strokeWidth=2;" vertex="1" parent="1">
          <mxGeometry x="155" y="470" width="200" height="100" as="geometry" />
        </mxCell>
        <mxCell id="faVl-AdN8Rskw6OQzA6x-13" value="&lt;font style=&quot;font-size: 16px;&quot;&gt;Header Cart Button&lt;/font&gt;" style="rounded=0;whiteSpace=wrap;html=1;strokeWidth=2;" vertex="1" parent="1">
          <mxGeometry x="195" y="630" width="120" height="80" as="geometry" />
        </mxCell>
        <mxCell id="faVl-AdN8Rskw6OQzA6x-15" value="&lt;font style=&quot;font-size: 14px;&quot;&gt;get count&lt;/font&gt;" style="text;html=1;strokeColor=none;fillColor=none;align=center;verticalAlign=middle;whiteSpace=wrap;rounded=0;strokeWidth=1;" vertex="1" parent="1">
          <mxGeometry x="255" y="580" width="60" height="30" as="geometry" />
        </mxCell>
        <mxCell id="faVl-AdN8Rskw6OQzA6x-17" value="&lt;font style=&quot;font-size: 14px;&quot;&gt;add product&lt;/font&gt;" style="text;html=1;align=center;verticalAlign=middle;resizable=0;points=[];autosize=1;strokeColor=none;fillColor=none;" vertex="1" parent="1">
          <mxGeometry x="185" y="260" width="100" height="30" as="geometry" />
        </mxCell>
        <mxCell id="faVl-AdN8Rskw6OQzA6x-19" value="&lt;font style=&quot;font-size: 14px;&quot;&gt;change count&lt;/font&gt;" style="text;html=1;align=center;verticalAlign=middle;resizable=0;points=[];autosize=1;strokeColor=none;fillColor=none;strokeWidth=1;" vertex="1" parent="1">
          <mxGeometry x="20" y="488" width="110" height="30" as="geometry" />
        </mxCell>
        <mxCell id="faVl-AdN8Rskw6OQzA6x-21" value="&lt;font style=&quot;font-size: 14px;&quot;&gt;change count&lt;/font&gt;" style="text;html=1;align=center;verticalAlign=middle;resizable=0;points=[];autosize=1;strokeColor=none;fillColor=none;strokeWidth=1;" vertex="1" parent="1">
          <mxGeometry x="350" y="488" width="110" height="30" as="geometry" />
        </mxCell>
        <mxCell id="faVl-AdN8Rskw6OQzA6x-29" value="&lt;font style=&quot;font-size: 14px;&quot;&gt;Render Card&lt;/font&gt;" style="text;html=1;align=center;verticalAlign=middle;resizable=0;points=[];autosize=1;strokeColor=none;fillColor=none;" vertex="1" parent="1">
          <mxGeometry x="570" y="530" width="100" height="30" as="geometry" />
        </mxCell>
        <mxCell id="faVl-AdN8Rskw6OQzA6x-30" value="&lt;font style=&quot;font-size: 14px;&quot;&gt;Products&lt;/font&gt;" style="text;html=1;align=center;verticalAlign=middle;resizable=0;points=[];autosize=1;strokeColor=none;fillColor=none;" vertex="1" parent="1">
          <mxGeometry x="590" y="458" width="80" height="30" as="geometry" />
        </mxCell>
        <mxCell id="faVl-AdN8Rskw6OQzA6x-33" value="&lt;font style=&quot;font-size: 14px;&quot;&gt;Change product count&lt;/font&gt;" style="text;html=1;align=center;verticalAlign=middle;resizable=0;points=[];autosize=1;strokeColor=none;fillColor=none;" vertex="1" parent="1">
          <mxGeometry x="570" y="240" width="160" height="30" as="geometry" />
        </mxCell>
        <mxCell id="faVl-AdN8Rskw6OQzA6x-39" value="&lt;font style=&quot;font-size: 14px;&quot;&gt;Products&lt;/font&gt;" style="text;html=1;align=center;verticalAlign=middle;resizable=0;points=[];autosize=1;strokeColor=none;fillColor=none;" vertex="1" parent="1">
          <mxGeometry x="429" y="360" width="80" height="30" as="geometry" />
        </mxCell>
        <mxCell id="faVl-AdN8Rskw6OQzA6x-41" value="modify products" style="text;html=1;align=center;verticalAlign=middle;resizable=0;points=[];autosize=1;strokeColor=none;fillColor=none;" vertex="1" parent="1">
          <mxGeometry x="480" y="290" width="110" height="30" as="geometry" />
        </mxCell>
      </root>
    </mxGraphModel>
  </diagram>
</mxfile>
